<?xml version="1.0" encoding="UTF-8" standalone="no"?>
<!-- Created with Inkscape (http://www.inkscape.org/) -->

<svg
   xmlns:dc="http://purl.org/dc/elements/1.1/"
   xmlns:cc="http://creativecommons.org/ns#"
   xmlns:rdf="http://www.w3.org/1999/02/22-rdf-syntax-ns#"
   xmlns:svg="http://www.w3.org/2000/svg"
   xmlns="http://www.w3.org/2000/svg"
   xmlns:sodipodi="http://sodipodi.sourceforge.net/DTD/sodipodi-0.dtd"
   xmlns:inkscape="http://www.inkscape.org/namespaces/inkscape"
   width="150"
   height="150"
   viewBox="0 0 39.687499 39.687501"
   version="1.1"
   id="svg8"
   inkscape:version="0.92.4 (unknown)"
   sodipodi:docname="Icon.svg"
   inkscape:export-filename="/home/luizcarlos1405/Palco/Dev/Projetos/SpriteTrail/godot_project/asset_lib_files/plugin_icon.png"
   inkscape:export-xdpi="96"
   inkscape:export-ydpi="96">
  <defs
     id="defs2" />
  <sodipodi:namedview
     id="base"
     pagecolor="#ffffff"
     bordercolor="#666666"
     borderopacity="1.0"
     inkscape:pageopacity="0.0"
     inkscape:pageshadow="2"
     inkscape:zoom="2.8"
     inkscape:cx="55.353818"
     inkscape:cy="84.413059"
     inkscape:document-units="mm"
     inkscape:current-layer="layer1"
     showgrid="false"
     units="px"
     inkscape:window-width="2512"
     inkscape:window-height="1050"
     inkscape:window-x="48"
     inkscape:window-y="0"
     inkscape:window-maximized="1" />
  <metadata
     id="metadata5">
    <rdf:RDF>
      <cc:Work
         rdf:about="">
        <dc:format>image/svg+xml</dc:format>
        <dc:type
           rdf:resource="http://purl.org/dc/dcmitype/StillImage" />
        <dc:title></dc:title>
      </cc:Work>
    </rdf:RDF>
  </metadata>
  <g
     inkscape:label="Camada 1"
     inkscape:groupmode="layer"
     id="layer1"
     transform="translate(0,-257.31248)">
    <g
       transform="matrix(8.3863023,0,0,8.3863023,2.0925615,-2195.8244)"
       id="layer1-3"
       inkscape:label="Camada 1"
       style="stroke-width:0.11924206">
      <path
         id="circle5793"
         transform="matrix(0.26458333,0,0,0.26458333,0,292.76665)"
         d="M 3.875,0.83398438 A 1.750442,1.750442 0 0 0 2.125,2.5859375 1.750442,1.750442 0 0 0 3.2089844,4.203125 c -0.00706,0.028677 -0.022466,0.053679 -0.025391,0.083984 l -0.029297,0.3125 c -0.00934,0.011335 -0.0226,0.01713 -0.03125,0.029297 L 2.0390625,6.1542969 c -0.053339,0.075018 -0.08395,0.1575442 -0.099609,0.2421875 -0.099377,0.078511 -0.1815201,0.1801715 -0.2167969,0.3125 L 1.1757816,8.7578125 C 1.0889606,9.0834911 1.2817437,9.4170853 1.6074223,9.5039062 1.9331009,9.5907272 2.264742,9.3979442 2.3515629,9.0722656 l 0.546875,-2.0507812 c 0.0037,-0.013894 -7.461e-4,-0.027118 0.00195,-0.041016 0.00975,-0.00756 0.018,-0.017178 0.027344,-0.025391 l -0.2578125,2.671875 c -0.0087,0.090149 0.00362,0.177699 0.03125,0.2578125 -0.023456,0.033005 -0.053248,0.061088 -0.070312,0.099609 L 1.671875,12.152344 c -0.023977,0.05413 -0.029513,0.110286 -0.037109,0.166015 -0.029966,0.03262 -0.064809,0.05956 -0.087891,0.09961 l -1.38671875,2.40625 c -0.16830699,0.292022 -0.06936632,0.661771 0.22265625,0.830078 0.29202257,0.168307 0.6637243,0.06937 0.8320313,-0.222656 l 1.3847656,-2.40625 c 0.042077,-0.07301 0.068357,-0.152031 0.078125,-0.230469 0.04019,-0.04564 0.07947,-0.0917 0.1054687,-0.150391 L 3.4296875,11.183594 4.4375,12.378906 v 2.748047 c 0,0.337053 0.2703693,0.609375 0.6074219,0.609375 0.3370526,0 0.609375,-0.272322 0.609375,-0.609375 v -2.775391 c 0,-0.146134 -0.057323,-0.276187 -0.1425781,-0.380859 -0.00604,-0.12885 -0.042897,-0.256585 -0.1328126,-0.363281 L 3.8613281,9.8085938 c 0.00471,-0.022321 0.017287,-0.041191 0.019531,-0.064453 L 4.1796875,6.6542969 4.2871094,6.8476562 c 0.056841,0.1021413 0.1418041,0.1713431 0.2363281,0.2246094 0.020568,0.06624 0.04726,0.130884 0.091797,0.1894532 l 1.283203,1.6894531 C 6.1024519,9.2194676 6.4836574,9.2704206 6.7519531,9.0664062 7.0202488,8.8623919 7.0712019,8.4831394 6.8671875,8.2148438 L 5.5839844,6.5253906 C 5.5285167,6.452446 5.4585413,6.3995175 5.3828125,6.359375 5.3710827,6.3248337 5.3680063,6.2889181 5.3496094,6.2558594 L 4.4394531,4.6191406 c -0.015087,-0.027111 -0.038295,-0.04452 -0.056641,-0.068359 l 0.013672,-0.1484374 c 0.00481,-0.049799 -0.00886,-0.095247 -0.015625,-0.1425782 A 1.750442,1.750442 0 0 0 5.625,2.5859375 1.750442,1.750442 0 0 0 3.875,0.83398438 Z"
         style="opacity:1;fill:#a5b7f3;fill-opacity:0.38801264;stroke:none;stroke-width:0.23848416;stroke-linecap:round;stroke-linejoin:miter;stroke-miterlimit:4;stroke-dasharray:none;stroke-opacity:1;paint-order:normal"
         inkscape:connector-curvature="0" />
      <path
         id="circle5825"
         transform="matrix(0.26458333,0,0,0.26458333,0,292.76665)"
         d="m 8.3925781,0.26367188 a 1.750442,1.750442 0 0 0 -1.75,1.75000002 1.750442,1.750442 0 0 0 1.0839844,1.6191406 c -0.00691,0.028307 -0.022507,0.052141 -0.025391,0.082031 L 7.6796875,3.9375 C 7.629756,3.9910441 7.5856213,4.0508198 7.5566406,4.1230469 L 6.859375,5.8613281 C 6.816218,5.9688856 6.814502,6.0793873 6.832031,6.1855469 6.793532,6.2432499 6.761579,6.3054628 6.74414,6.3769531 l -0.5019531,2.0625 c -0.079877,0.327451 0.1178615,0.6544983 0.4453125,0.734375 0.182141,0.044431 0.3603378,-0.00313 0.5,-0.1054687 -0.0061,0.079553 0.00297,0.160647 0.025391,0.2324218 C 7.1087494,9.4801001 7.1010013,9.6920896 7.1953125,9.875 l -0.080078,2.142578 c -0.00265,0.07188 0.012857,0.140344 0.033203,0.205078 -0.00978,0.0233 -0.026192,0.04142 -0.033203,0.06641 l -0.75,2.673829 c -0.091074,0.324515 0.095407,0.658926 0.4199218,0.75 0.3245151,0.09107 0.6589264,-0.09736 0.75,-0.421875 l 0.3007812,-1.07227 c 0.1053612,-0.03694 0.2047569,-0.09297 0.2792969,-0.1875 l 1.71875,-2.179688 c 0.07367,-0.09342 0.1052521,-0.202766 0.1171875,-0.3125 0.1160241,-0.229221 0.083494,-0.512166 -0.109375,-0.703124 L 8.34375,9.3515625 c 0.00183,-0.0043 0.00217,-0.00932 0.00391,-0.013672 0.068019,0.00874 0.1379754,0.00981 0.2089844,-0.00586 0.3291279,-0.07264 0.535528,-0.3954769 0.4628868,-0.7246086 L 8.625,6.8144531 8.8125,4.8632812 8.8671875,4.4765625 c 0.00523,-0.037027 -0.00644,-0.07138 -0.00781,-0.1074219 l 0.052734,-0.5371094 c 0.00481,-0.049799 -0.00886,-0.095247 -0.015625,-0.1425781 A 1.750442,1.750442 0 0 0 10.142578,2.0136719 1.750442,1.750442 0 0 0 8.3925781,0.26367188 Z M 8.3671875,11.087891 8.6582031,11.376953 8.3417969,11.779297 Z"
         style="opacity:1;fill:#a5b7f3;fill-opacity:0.67192431;stroke:none;stroke-width:0.23848416;stroke-linecap:round;stroke-linejoin:miter;stroke-miterlimit:4;stroke-dasharray:none;stroke-opacity:1;paint-order:normal"
         inkscape:connector-curvature="0" />
      <g
         style="stroke-width:0.08530966"
         transform="matrix(1.3977557,0,0,1.3977557,-1.4518922,-116.91105)"
         id="g5931">
        <circle
           style="opacity:1;fill:#a5b7f3;fill-opacity:1;stroke:none;stroke-width:0.04514303;stroke-linecap:round;stroke-linejoin:miter;stroke-miterlimit:4;stroke-dasharray:none;stroke-opacity:1;paint-order:normal"
           id="circle5889"
           cx="3.4845142"
           cy="293.63821"
           r="0.33134386" />
        <rect
           transform="rotate(5.5113874)"
           style="opacity:1;fill:#a5b7f3;fill-opacity:1;stroke:none;stroke-width:0.04514303;stroke-linecap:round;stroke-linejoin:miter;stroke-miterlimit:4;stroke-dasharray:none;stroke-opacity:1;paint-order:normal"
           id="rect5891"
           width="0.23032925"
           height="1.2461402"
           x="31.571186"
           y="292.164"
           ry="0.11516462" />
        <rect
           transform="rotate(7.8369228)"
           inkscape:transform-center-y="0.25662844"
           inkscape:transform-center-x="0.036293094"
           y="291.75833"
           x="43.453526"
           height="0.67917591"
           width="0.23032925"
           id="rect5893"
           style="opacity:1;fill:#a5b7f3;fill-opacity:1;stroke:none;stroke-width:0.04514303;stroke-linecap:round;stroke-linejoin:miter;stroke-miterlimit:4;stroke-dasharray:none;stroke-opacity:1;paint-order:normal"
           ry="0.11516462" />
        <rect
           inkscape:transform-center-x="0.20165736"
           transform="rotate(46.766099)"
           inkscape:transform-center-y="0.19643862"
           ry="0.11516462"
           style="opacity:1;fill:#a5b7f3;fill-opacity:1;stroke:none;stroke-width:0.04514303;stroke-linecap:round;stroke-linejoin:miter;stroke-miterlimit:4;stroke-dasharray:none;stroke-opacity:1;paint-order:normal"
           id="rect5895"
           width="0.23032925"
           height="0.75595236"
           x="217.49361"
           y="199.97023" />
        <rect
           transform="rotate(-40.121715)"
           inkscape:transform-center-y="0.19002722"
           inkscape:transform-center-x="-0.16400946"
           ry="0.11516462"
           style="opacity:1;fill:#a5b7f3;fill-opacity:1;stroke:none;stroke-width:0.04514303;stroke-linecap:round;stroke-linejoin:miter;stroke-miterlimit:4;stroke-dasharray:none;stroke-opacity:1;paint-order:normal"
           id="rect5897"
           width="0.23032925"
           height="0.67917591"
           x="-187.67322"
           y="227.70915" />
        <rect
           inkscape:transform-center-y="0.26146031"
           inkscape:transform-center-x="-0.12408582"
           y="269.66827"
           x="-120.70111"
           height="0.75595236"
           width="0.23032925"
           id="rect5899"
           style="opacity:1;fill:#a5b7f3;fill-opacity:1;stroke:none;stroke-width:0.04514303;stroke-linecap:round;stroke-linejoin:miter;stroke-miterlimit:4;stroke-dasharray:none;stroke-opacity:1;paint-order:normal"
           ry="0.11516462"
           transform="rotate(-24.804042)" />
        <rect
           transform="rotate(39.44318)"
           inkscape:transform-center-y="0.1785371"
           inkscape:transform-center-x="0.13158337"
           y="224.81657"
           x="189.37535"
           height="0.58468187"
           width="0.23032925"
           id="rect5901"
           style="opacity:1;fill:#a5b7f3;fill-opacity:1;stroke:none;stroke-width:0.04514303;stroke-linecap:round;stroke-linejoin:miter;stroke-miterlimit:4;stroke-dasharray:none;stroke-opacity:1;paint-order:normal"
           ry="0.11516462" />
        <rect
           transform="rotate(32.213056)"
           inkscape:transform-center-y="0.18554438"
           inkscape:transform-center-x="0.10992469"
           ry="0.11516462"
           style="opacity:1;fill:#a5b7f3;fill-opacity:1;stroke:none;stroke-width:0.04514303;stroke-linecap:round;stroke-linejoin:miter;stroke-miterlimit:4;stroke-dasharray:none;stroke-opacity:1;paint-order:normal"
           id="rect5903"
           width="0.23032925"
           height="0.63192886"
           x="159.50673"
           y="247.30963" />
        <rect
           transform="rotate(-7.7086285)"
           inkscape:transform-center-y="0.21282189"
           inkscape:transform-center-x="-0.03476525"
           ry="0.11516462"
           style="opacity:1;fill:#a5b7f3;fill-opacity:1;stroke:none;stroke-width:0.04514303;stroke-linecap:round;stroke-linejoin:miter;stroke-miterlimit:4;stroke-dasharray:none;stroke-opacity:1;paint-order:normal"
           id="rect5905"
           width="0.23032925"
           height="0.58468187"
           x="-36.116138"
           y="291.7796" />
        <rect
           transform="rotate(-37.739539)"
           inkscape:transform-center-y="0.17101108"
           inkscape:transform-center-x="-0.13607053"
           y="234.96289"
           x="-177.5658"
           height="0.63192886"
           width="0.23032925"
           id="rect5907"
           style="opacity:1;fill:#a5b7f3;fill-opacity:1;stroke:none;stroke-width:0.04514303;stroke-linecap:round;stroke-linejoin:miter;stroke-miterlimit:4;stroke-dasharray:none;stroke-opacity:1;paint-order:normal"
           ry="0.11516462" />
      </g>
    </g>
  </g>
</svg>
